General
Complete name                    : Wrong Turn at Tahoe.avi
Format                           : AVI
File size                        : 1.11 GiB
Duration                         : 1h 26mn
Overall bit rate                 : 1 837 Kbps

Video
ID                               : 0
Format                           : MPEG-4 VisualD
Codec ID/Hint                    : XviD
Duration                         : 1h 26mn
Bit rate                         : 1 378 Kbps
Width                            : 720 pixels
Height                           : 436 pixels
Display aspect ratio             : 2.35:1
Colorimetry                      : 4:2:0
Scan type                        : Progressive
Bits/(Pixel*Frame)               : 0.176
Stream size                      : 854 MiB (75%)
Writing library                  : XviD 1.1.2 (UTC 2006-11-01)

Audio
ID                               : 1
Format                           : AC-3
Duration                         : 1h 26mn
Bit rate                         : 448 Kbps
Channel(s)                       : 6 channels
Channel positions                : Front: L C R, Side: L R, LFE
Sampling rate                    : 48.0 KHz
Stream size                      : 278 MiB (24%)
)

